<svg width="27" height="24" viewBox="0 0 27 24" fill="none" xmlns="http://www.w3.org/2000/svg">
<mask id="mask0_120_956" style="mask-type:alpha" maskUnits="userSpaceOnUse" x="0" y="0" width="27" height="24">
<g clip-path="url(#clip0_120_956)">
<path d="M21.375 4H20.25V3C20.25 2.45 19.7437 2 19.125 2C18.5063 2 18 2.45 18 3V4H9V3C9 2.45 8.49375 2 7.875 2C7.25625 2 6.75 2.45 6.75 3V4H5.625C4.37625 4 3.38625 4.9 3.38625 6L3.375 20C3.375 21.1 4.37625 22 5.625 22H21.375C22.6125 22 23.625 21.1 23.625 20V6C23.625 4.9 22.6125 4 21.375 4ZM21.375 19C21.375 19.55 20.8687 20 20.25 20H6.75C6.13125 20 5.625 19.55 5.625 19V9H21.375V19ZM7.875 11H10.125V13H7.875V11ZM12.375 11H14.625V13H12.375V11ZM16.875 11H19.125V13H16.875V11Z" fill="#323232"/>
</g>
</mask>
<g mask="url(#mask0_120_956)">
<rect width="27" height="24" fill="url(#paint0_linear_120_956)"/>
</g>
<defs>
<linearGradient id="paint0_linear_120_956" x1="13.5" y1="0" x2="13.5" y2="24" gradientUnits="userSpaceOnUse">
<stop stop-color="#1E68FA"/>
<stop offset="1" stop-color="#FF2EA0"/>
</linearGradient>
<clipPath id="clip0_120_956">
<rect width="27" height="24" fill="white"/>
</clipPath>
</defs>
</svg>
