<svg width="15" height="15" viewBox="0 0 15 15" fill="none" xmlns="http://www.w3.org/2000/svg">
<mask id="mask0_344_140" style="mask-type:alpha" maskUnits="userSpaceOnUse" x="0" y="0" width="15" height="15">
<path d="M8.13048 0.548181C3.82468 0.244159 0.268329 3.80051 0.572351 8.10631C0.826881 11.8465 4.09335 14.6675 7.8406 14.6675H10.4495C10.8384 14.6675 11.1566 14.3494 11.1566 13.9605C11.1566 13.5716 10.8384 13.2535 10.4495 13.2535H7.85474C5.21752 13.2535 2.79949 11.5425 2.14195 8.99009C1.08848 4.88933 4.90643 1.06431 9.00719 2.12485C11.5666 2.77532 13.2776 5.19335 13.2776 7.83057V8.6083C13.2776 9.16685 12.7757 9.71833 12.2171 9.71833C11.6585 9.71833 11.1566 9.16685 11.1566 8.6083V7.72451C11.1566 5.94987 9.89805 4.35199 8.14462 4.10453C5.74072 3.75809 3.71156 5.83675 4.14284 8.25479C4.38323 9.60521 5.4367 10.7223 6.77299 11.0405C8.07392 11.3445 9.31122 10.9274 10.1243 10.1001C10.7536 10.9627 12.0121 11.4152 13.1645 10.9556C14.1119 10.5809 14.6917 9.61228 14.6917 8.59416V7.8235C14.6917 4.06918 11.8707 0.802711 8.13048 0.548181ZM7.62142 9.71833C6.44775 9.71833 5.50034 8.77092 5.50034 7.59725C5.50034 6.42358 6.44775 5.47617 7.62142 5.47617C8.79509 5.47617 9.7425 6.42358 9.7425 7.59725C9.7425 8.77092 8.79509 9.71833 7.62142 9.71833Z" fill="white"/>
</mask>
<g mask="url(#mask0_344_140)">
<rect x="-1.802" y="-1.82623" width="18.85" height="18.85" fill="url(#paint0_linear_344_140)"/>
</g>
<defs>
<linearGradient id="paint0_linear_344_140" x1="7.623" y1="-1.82623" x2="7.623" y2="17.0238" gradientUnits="userSpaceOnUse">
<stop stop-color="#1E68FA"/>
<stop offset="1" stop-color="#FF2EA0"/>
</linearGradient>
</defs>
</svg>
