<svg width="21" height="21" viewBox="0 0 21 21" fill="none" xmlns="http://www.w3.org/2000/svg">
<mask id="mask0_120_1487" style="mask-type:alpha" maskUnits="userSpaceOnUse" x="0" y="0" width="21" height="21">
<g clip-path="url(#clip0_120_1487)">
<path d="M17.5822 2.25677H7.37181C6.43586 2.25677 5.67007 3.02256 5.67007 3.95851V14.1689C5.67007 15.1049 6.43586 15.8707 7.37181 15.8707H17.5822C18.5182 15.8707 19.284 15.1049 19.284 14.1689V3.95851C19.284 3.02256 18.5182 2.25677 17.5822 2.25677ZM10.3498 8.63829C10.3498 9.34451 9.77977 9.91459 9.07355 9.91459H8.22268V10.9782C8.22268 11.327 7.93338 11.6163 7.58453 11.6163C7.23567 11.6163 6.94638 11.327 6.94638 10.9782V7.36198C6.94638 6.89401 7.32927 6.51112 7.79724 6.51112H9.07355C9.77977 6.51112 10.3498 7.0812 10.3498 7.78742V8.63829ZM14.6042 10.34C14.6042 11.0462 14.0341 11.6163 13.3279 11.6163H11.6262C11.3879 11.6163 11.2007 11.4291 11.2007 11.1909V6.93655C11.2007 6.69831 11.3879 6.51112 11.6262 6.51112H13.3279C14.0341 6.51112 14.6042 7.0812 14.6042 7.78742V10.34ZM18.0077 7.14927C18.0077 7.49812 17.7184 7.78742 17.3695 7.78742H16.7314V8.63829H17.3695C17.7184 8.63829 18.0077 8.92758 18.0077 9.27644C18.0077 9.62529 17.7184 9.91459 17.3695 9.91459H16.7314V10.9782C16.7314 11.327 16.4421 11.6163 16.0932 11.6163C15.7444 11.6163 15.4551 11.327 15.4551 10.9782V7.36198C15.4551 6.89401 15.8379 6.51112 16.3059 6.51112H17.3695C17.7184 6.51112 18.0077 6.80041 18.0077 7.14927ZM8.22268 8.63829H9.07355V7.78742H8.22268V8.63829ZM3.11747 5.66025C2.64949 5.66025 2.2666 6.04314 2.2666 6.51112V17.5724C2.2666 18.5084 3.03238 19.2741 3.96834 19.2741H15.0296C15.4976 19.2741 15.8805 18.8912 15.8805 18.4233C15.8805 17.9553 15.4976 17.5724 15.0296 17.5724H4.81921C4.35123 17.5724 3.96834 17.1895 3.96834 16.7215V6.51112C3.96834 6.04314 3.58545 5.66025 3.11747 5.66025ZM12.477 10.34H13.3279V7.78742H12.477V10.34Z" fill="#323232"/>
</g>
</mask>
<g mask="url(#mask0_120_1487)">
<rect x="0.564819" y="0.555054" width="20.4208" height="20.4208" fill="white" fill-opacity="0.8"/>
</g>
<defs>
<clipPath id="clip0_120_1487">
<rect width="20.4208" height="20.4208" fill="white" transform="translate(0.564819 0.555054)"/>
</clipPath>
</defs>
</svg>
