<svg width="31" height="31" viewBox="0 0 31 31" fill="none" xmlns="http://www.w3.org/2000/svg">
<path fill-rule="evenodd" clip-rule="evenodd" d="M15.4407 3.34818C16.3311 3.34818 17.1966 3.71379 17.8172 4.34925C18.4365 4.98845 18.7785 5.86517 18.7524 6.75433C18.7549 6.95455 18.8208 7.18585 18.9401 7.38855C19.1379 7.72432 19.45 7.9606 19.8206 8.0576C20.1912 8.14962 20.5792 8.09988 20.9087 7.90464C22.5005 6.99558 24.5263 7.54027 25.4353 9.11961L26.2101 10.4614C26.23 10.4975 26.2474 10.5323 26.2623 10.5684C27.0856 12.1241 26.5359 14.0827 25.0063 14.9769C24.7837 15.1049 24.6034 15.284 24.479 15.5004C24.2863 15.8349 24.2328 16.2329 24.3298 16.5985C24.4293 16.9716 24.6668 17.2812 25.0013 17.4727C25.7562 17.9067 26.3195 18.6379 26.5446 19.4823C26.7697 20.3255 26.6466 21.2408 26.2076 21.9956L25.3819 23.371C24.4728 24.9329 22.447 25.4739 20.8714 24.5636C20.6613 24.443 20.4188 24.3771 20.1775 24.3708H20.17C19.8106 24.3708 19.4413 24.5238 19.1727 24.7912C18.9004 25.0635 18.7511 25.4266 18.7536 25.8121C18.7449 27.639 17.2588 29.1163 15.4407 29.1163H13.8825C12.0557 29.1163 10.5696 27.6315 10.5696 25.8047C10.5671 25.5796 10.5025 25.3458 10.3818 25.1431C10.1866 24.8024 9.87074 24.5586 9.50637 24.4616C9.14449 24.3646 8.74779 24.4181 8.42197 24.6071C7.641 25.0424 6.722 25.1481 5.88134 24.9118C5.04193 24.6743 4.31692 24.0972 3.89162 23.3324L3.11438 21.9931C2.20533 20.4163 2.74628 18.3954 4.32065 17.4852C4.7671 17.2277 5.04441 16.7477 5.04441 16.2329C5.04441 15.718 4.7671 15.2368 4.32065 14.9793C2.74504 14.0641 2.20533 12.0383 3.11314 10.4614L3.95628 9.07733C4.8529 7.51789 6.87993 6.96823 8.46052 7.87604C8.67566 8.00412 8.90945 8.06879 9.14698 8.07128C9.92172 8.07128 10.5696 7.43208 10.5821 6.64614C10.5771 5.77937 10.9191 4.94741 11.5421 4.31941C12.1676 3.69265 12.9983 3.34818 13.8825 3.34818H15.4407ZM15.4407 5.21354H13.8825C13.497 5.21354 13.1364 5.36401 12.864 5.63511C12.5929 5.90745 12.4449 6.26934 12.4474 6.65484C12.4213 8.47295 10.9352 9.93664 9.13578 9.93664C8.55876 9.93042 8.00288 9.77498 7.52038 9.48647C6.84263 9.10096 5.9572 9.33848 5.5605 10.0287L4.7186 11.4128C4.33309 12.0818 4.56937 12.966 5.25582 13.3652C6.27431 13.9546 6.90978 15.054 6.90978 16.2329C6.90978 17.4118 6.27431 18.5099 5.25334 19.1006C4.57061 19.496 4.33433 20.3752 4.72979 21.0592L5.51449 22.4122C5.70849 22.7616 6.0256 23.0141 6.39245 23.1173C6.75806 23.2193 7.16098 23.1758 7.49675 22.9892C7.99045 22.6995 8.56498 22.549 9.142 22.549C9.42678 22.549 9.71156 22.5851 9.99012 22.6597C10.8308 22.886 11.5608 23.4481 11.9935 24.2029C12.2746 24.6768 12.43 25.2301 12.435 25.7947C12.435 26.6031 13.0841 27.251 13.8825 27.251H15.4407C16.2354 27.251 16.8845 26.6068 16.8882 25.8121C16.8833 24.9342 17.2265 24.0997 17.8545 23.4717C18.4738 22.8524 19.3393 22.4806 20.2049 22.5055C20.7719 22.5191 21.3179 22.6721 21.7991 22.9457C22.4918 23.3424 23.376 23.1061 23.7764 22.4221L24.6021 21.0455C24.7862 20.7284 24.8397 20.3305 24.7414 19.9636C24.6444 19.5967 24.4007 19.2784 24.0724 19.0906C23.3039 18.6479 22.7554 17.9341 22.5279 17.0785C22.3028 16.2391 22.4259 15.3226 22.8649 14.5677C23.1509 14.0703 23.57 13.6512 24.0724 13.3627C24.7464 12.9685 24.9827 12.0868 24.591 11.4003C24.5748 11.373 24.5599 11.3444 24.5474 11.3145L23.8187 10.0511C23.422 9.36087 22.5391 9.12334 21.8464 9.51756C21.0977 9.96027 20.2073 10.0871 19.3518 9.86203C18.4974 9.64067 17.7811 9.09972 17.3347 8.33616C17.0487 7.85863 16.8932 7.30275 16.8882 6.73692C16.8994 6.31162 16.7502 5.92984 16.4791 5.65003C16.2092 5.37147 15.83 5.21354 15.4407 5.21354ZM14.6671 12.021C16.9888 12.021 18.8778 13.9112 18.8778 16.233C18.8778 18.5548 16.9888 20.4425 14.6671 20.4425C12.3453 20.4425 10.4563 18.5548 10.4563 16.233C10.4563 13.9112 12.3453 12.021 14.6671 12.021ZM14.6671 13.8864C13.3738 13.8864 12.3217 14.9397 12.3217 16.233C12.3217 17.5263 13.3738 18.5771 14.6671 18.5771C15.9604 18.5771 17.0125 17.5263 17.0125 16.233C17.0125 14.9397 15.9604 13.8864 14.6671 13.8864Z" fill="black" fill-opacity="0.6"/>
</svg>
