<svg width="31" height="30" viewBox="0 0 31 30" fill="none" xmlns="http://www.w3.org/2000/svg">
<path fill-rule="evenodd" clip-rule="evenodd" d="M16.0238 2.55646C16.9142 2.55646 17.7797 2.92207 18.4003 3.55754C19.0196 4.19673 19.3616 5.07346 19.3355 5.96261C19.338 6.16283 19.4039 6.39413 19.5232 6.59684C19.721 6.9326 20.0331 7.16888 20.4037 7.26588C20.7743 7.35791 21.1623 7.30816 21.4918 7.11292C23.0836 6.20387 25.1094 6.74855 26.0184 8.32789L26.7932 9.66971C26.8131 9.70578 26.8305 9.7406 26.8454 9.77666C27.6687 11.3324 27.119 13.291 25.5894 14.1851C25.3668 14.3132 25.1865 14.4923 25.0621 14.7087C24.8694 15.0432 24.8159 15.4412 24.9129 15.8068C25.0124 16.1798 25.2499 16.4895 25.5844 16.681C26.3393 17.115 26.9026 17.8462 27.1277 18.6906C27.3528 19.5338 27.2297 20.449 26.7907 21.2039L25.965 22.5793C25.0559 24.1412 23.0301 24.6822 21.4545 23.7719C21.2444 23.6512 21.0019 23.5853 20.7606 23.5791H20.7531C20.3937 23.5791 20.0244 23.7321 19.7558 23.9994C19.4834 24.2718 19.3342 24.6349 19.3367 25.0204C19.328 26.8472 17.8419 28.3246 16.0238 28.3246H14.4656C12.6388 28.3246 11.1527 26.8398 11.1527 25.013C11.1502 24.7879 11.0856 24.5541 10.9649 24.3514C10.7697 24.0106 10.4538 23.7669 10.0895 23.6699C9.72759 23.5729 9.33089 23.6264 9.00507 23.8154C8.2241 24.2506 7.3051 24.3563 6.46444 24.1201C5.62503 23.8825 4.90002 23.3055 4.47472 22.5407L3.69748 21.2014C2.78843 19.6245 3.32938 17.6037 4.90375 16.6934C5.3502 16.436 5.62751 15.956 5.62751 15.4412C5.62751 14.9263 5.3502 14.445 4.90375 14.1876C3.32814 13.2724 2.78843 11.2466 3.69624 9.66971L4.53938 8.28561C5.436 6.72617 7.46303 6.17651 9.04362 7.08432C9.25876 7.21241 9.49255 7.27707 9.73007 7.27956C10.5048 7.27956 11.1527 6.64036 11.1652 5.85442C11.1602 4.98765 11.5022 4.1557 12.1252 3.52769C12.7507 2.90093 13.5814 2.55646 14.4656 2.55646H16.0238ZM16.0238 4.42182H14.4656C14.0801 4.42182 13.7195 4.57229 13.4471 4.84339C13.176 5.11574 13.028 5.47762 13.0305 5.86313C13.0044 7.68124 11.5183 9.14493 9.71888 9.14493C9.14186 9.13871 8.58598 8.98326 8.10348 8.69475C7.42573 8.30924 6.5403 8.54676 6.1436 9.23695L5.3017 10.621C4.91619 11.2901 5.15247 12.1743 5.83892 12.5735C6.85741 13.1629 7.49288 14.2622 7.49288 15.4412C7.49288 16.6201 6.85741 17.7181 5.83644 18.3088C5.15371 18.7043 4.91743 19.5835 5.31289 20.2675L6.09759 21.6205C6.29158 21.9699 6.6087 22.2224 6.97555 22.3256C7.34116 22.4276 7.74408 22.384 8.07985 22.1975C8.57355 21.9077 9.14808 21.7573 9.7251 21.7573C10.0099 21.7573 10.2947 21.7933 10.5732 21.868C11.4139 22.0943 12.1439 22.6564 12.5766 23.4112C12.8577 23.885 13.0131 24.4384 13.0181 25.003C13.0181 25.8113 13.6672 26.4592 14.4656 26.4592H16.0238C16.8185 26.4592 17.4676 25.8151 17.4713 25.0204C17.4664 24.1425 17.8096 23.308 18.4376 22.68C19.0569 22.0607 19.9224 21.6889 20.788 21.7138C21.355 21.7274 21.901 21.8804 22.3822 22.154C23.0749 22.5507 23.9591 22.3144 24.3595 21.6304L25.1852 20.2538C25.3693 19.9367 25.4228 19.5387 25.3245 19.1719C25.2275 18.805 24.9838 18.4867 24.6555 18.2989C23.887 17.8562 23.3385 17.1424 23.111 16.2868C22.8859 15.4474 23.009 14.5309 23.448 13.776C23.734 13.2786 24.1531 12.8595 24.6555 12.571C25.3295 12.1768 25.5658 11.2951 25.1741 10.6086C25.1579 10.5813 25.143 10.5527 25.1305 10.5228L24.4018 9.25933C24.0051 8.56915 23.1222 8.33163 22.4295 8.72584C21.6808 9.16855 20.7904 9.2954 19.9349 9.07031C19.0805 8.84895 18.3642 8.308 17.9178 7.54444C17.6318 7.06691 17.4763 6.51103 17.4713 5.9452C17.4825 5.5199 17.3333 5.13812 17.0622 4.85832C16.7923 4.57976 16.4131 4.42182 16.0238 4.42182ZM15.2502 11.2293C17.5719 11.2293 19.4609 13.1195 19.4609 15.4413C19.4609 17.763 17.5719 19.6508 15.2502 19.6508C12.9284 19.6508 11.0394 17.763 11.0394 15.4413C11.0394 13.1195 12.9284 11.2293 15.2502 11.2293ZM15.2502 13.0946C13.9569 13.0946 12.9048 14.148 12.9048 15.4413C12.9048 16.7346 13.9569 17.7854 15.2502 17.7854C16.5435 17.7854 17.5956 16.7346 17.5956 15.4413C17.5956 14.148 16.5435 13.0946 15.2502 13.0946Z" fill="white" fill-opacity="0.8"/>
</svg>
