<svg width="311" height="26" viewBox="0 0 311 26" fill="none" xmlns="http://www.w3.org/2000/svg">
<rect width="311" height="26" rx="4" fill="url(#paint0_linear_120_1053)"/>
<g clip-path="url(#clip0_120_1053)">
<path d="M15 6.77777C13.7694 6.77777 12.5664 7.1427 11.5431 7.8264C10.5199 8.51011 9.72236 9.48189 9.25141 10.6189C8.78047 11.7558 8.65725 13.0069 8.89733 14.2139C9.13742 15.4209 9.73003 16.5296 10.6002 17.3998C11.4704 18.27 12.5791 18.8626 13.7861 19.1027C14.9931 19.3427 16.2442 19.2195 17.3811 18.7486C18.5181 18.2776 19.4899 17.4801 20.1736 16.4569C20.8573 15.4336 21.2222 14.2306 21.2222 13C21.2222 11.3498 20.5667 9.76711 19.3998 8.60022C18.2329 7.43332 16.6502 6.77777 15 6.77777ZM14.8833 8.44999C15.0304 8.44196 15.1775 8.46475 15.3152 8.51689C15.4529 8.56903 15.5782 8.64937 15.6831 8.75277C15.788 8.85617 15.8701 8.98034 15.9241 9.11732C15.9782 9.2543 16.0031 9.40107 15.9971 9.54822C16.0087 9.69743 15.9879 9.84739 15.9361 9.98777C15.8842 10.1282 15.8025 10.2557 15.6967 10.3615C15.5908 10.4673 15.4633 10.5489 15.3229 10.6007C15.1825 10.6525 15.0325 10.6733 14.8833 10.6616C14.7347 10.6706 14.5859 10.648 14.4467 10.5952C14.3074 10.5424 14.181 10.4607 14.0757 10.3554C13.9704 10.2502 13.8887 10.1237 13.8359 9.9845C13.7832 9.84528 13.7605 9.69644 13.7696 9.54783C13.7636 9.4007 13.7884 9.25394 13.8425 9.11698C13.8966 8.98002 13.9787 8.85587 14.0836 8.75251C14.1884 8.64914 14.3138 8.56883 14.4515 8.51673C14.5892 8.46464 14.7363 8.44191 14.8833 8.44999ZM16.5556 16.5C16.5556 16.6031 16.5146 16.702 16.4416 16.775C16.3687 16.8479 16.2698 16.8889 16.1667 16.8889H13.8333C13.7302 16.8889 13.6313 16.8479 13.5583 16.775C13.4854 16.702 13.4444 16.6031 13.4444 16.5V15.7222C13.4444 15.6191 13.4854 15.5202 13.5583 15.4472C13.6313 15.3743 13.7302 15.3333 13.8333 15.3333H14.2222V13H13.8333C13.7302 13 13.6313 12.959 13.5583 12.8861C13.4854 12.8132 13.4444 12.7142 13.4444 12.6111V11.8333C13.4444 11.7302 13.4854 11.6313 13.5583 11.5583C13.6313 11.4854 13.7302 11.4444 13.8333 11.4444H15.3889C15.492 11.4444 15.5909 11.4854 15.6639 11.5583C15.7368 11.6313 15.7778 11.7302 15.7778 11.8333V15.3333H16.1667C16.2698 15.3333 16.3687 15.3743 16.4416 15.4472C16.5146 15.5202 16.5556 15.6191 16.5556 15.7222V16.5Z" fill="white"/>
</g>
<path d="M34.006 9.739C33.9583 9.817 33.9085 9.8755 33.8565 9.9145C33.8045 9.94917 33.7395 9.9665 33.6615 9.9665C33.5792 9.9665 33.486 9.93183 33.382 9.8625C33.2823 9.79317 33.1567 9.71733 33.005 9.635C32.8577 9.54833 32.6822 9.47033 32.4785 9.401C32.2748 9.32733 32.0322 9.2905 31.7505 9.2905C31.4905 9.2905 31.2608 9.323 31.0615 9.388C30.8665 9.453 30.7018 9.544 30.5675 9.661C30.4332 9.778 30.3313 9.91667 30.262 10.077C30.197 10.233 30.1645 10.4042 30.1645 10.5905C30.1645 10.8288 30.2273 11.0282 30.353 11.1885C30.4787 11.3445 30.6433 11.4788 30.847 11.5915C31.055 11.7042 31.2912 11.8038 31.5555 11.8905C31.8198 11.9728 32.0885 12.0617 32.3615 12.157C32.6388 12.2523 32.9097 12.3607 33.174 12.482C33.4383 12.6033 33.6723 12.7572 33.876 12.9435C34.084 13.1298 34.2508 13.3573 34.3765 13.626C34.5022 13.8947 34.565 14.2218 34.565 14.6075C34.565 15.0235 34.4935 15.4135 34.3505 15.7775C34.2075 16.1415 33.9995 16.46 33.7265 16.733C33.4578 17.0017 33.1242 17.214 32.7255 17.37C32.3312 17.526 31.8805 17.604 31.3735 17.604C31.0745 17.604 30.782 17.5737 30.496 17.513C30.2143 17.4567 29.9435 17.3765 29.6835 17.2725C29.4278 17.1642 29.1873 17.0342 28.962 16.8825C28.7367 16.7308 28.5352 16.5618 28.3575 16.3755L28.7995 15.6475C28.8385 15.5868 28.8883 15.5392 28.949 15.5045C29.0097 15.4698 29.0768 15.4525 29.1505 15.4525C29.2502 15.4525 29.3607 15.5002 29.482 15.5955C29.6033 15.6865 29.7485 15.7883 29.9175 15.901C30.0908 16.0093 30.2988 16.1112 30.5415 16.2065C30.7842 16.2975 31.0745 16.343 31.4125 16.343C31.9628 16.343 32.3875 16.2087 32.6865 15.94C32.9898 15.6713 33.1415 15.3008 33.1415 14.8285C33.1415 14.5642 33.0787 14.3497 32.953 14.185C32.8273 14.016 32.6605 13.8752 32.4525 13.7625C32.2488 13.6498 32.0148 13.5545 31.7505 13.4765C31.4862 13.3985 31.2175 13.3162 30.9445 13.2295C30.6715 13.1385 30.4028 13.0345 30.1385 12.9175C29.8742 12.7962 29.638 12.6402 29.43 12.4495C29.2263 12.2545 29.0617 12.0162 28.936 11.7345C28.8103 11.4485 28.7475 11.0932 28.7475 10.6685C28.7475 10.3305 28.8125 10.0033 28.9425 9.687C29.0768 9.37067 29.2697 9.09117 29.521 8.8485C29.7767 8.6015 30.0908 8.40433 30.4635 8.257C30.8362 8.10967 31.2608 8.036 31.7375 8.036C32.2748 8.036 32.7667 8.1205 33.213 8.2895C33.6637 8.4585 34.0515 8.699 34.3765 9.011L34.006 9.739ZM37.2441 11.6565C37.5171 11.3878 37.8161 11.1733 38.1411 11.013C38.4661 10.8483 38.8453 10.766 39.2786 10.766C39.6426 10.766 39.9611 10.8267 40.2341 10.948C40.5115 11.0693 40.7433 11.2405 40.9296 11.4615C41.1203 11.6825 41.2633 11.949 41.3586 12.261C41.454 12.5687 41.5016 12.9088 41.5016 13.2815V17.5H40.1106V13.2815C40.1106 12.8352 40.0066 12.4885 39.7986 12.2415C39.595 11.9945 39.283 11.871 38.8626 11.871C38.5506 11.871 38.2603 11.9425 37.9916 12.0855C37.7273 12.2285 37.4781 12.4235 37.2441 12.6705V17.5H35.8466V7.88H37.2441V11.6565ZM46.0002 10.766C46.4899 10.766 46.9319 10.8462 47.3262 11.0065C47.7249 11.1668 48.0629 11.3943 48.3402 11.689C48.6219 11.9837 48.8386 12.3412 48.9902 12.7615C49.1419 13.1818 49.2177 13.6542 49.2177 14.1785C49.2177 14.7028 49.1419 15.1752 48.9902 15.5955C48.8386 16.0158 48.6219 16.3755 48.3402 16.6745C48.0629 16.9692 47.7249 17.1967 47.3262 17.357C46.9319 17.5173 46.4899 17.5975 46.0002 17.5975C45.5062 17.5975 45.0599 17.5173 44.6612 17.357C44.2669 17.1967 43.9289 16.9692 43.6472 16.6745C43.3656 16.3755 43.1489 16.0158 42.9972 15.5955C42.8456 15.1752 42.7697 14.7028 42.7697 14.1785C42.7697 13.6542 42.8456 13.1818 42.9972 12.7615C43.1489 12.3412 43.3656 11.9837 43.6472 11.689C43.9289 11.3943 44.2669 11.1668 44.6612 11.0065C45.0599 10.8462 45.5062 10.766 46.0002 10.766ZM46.0002 16.5055C46.5982 16.5055 47.0424 16.3062 47.3327 15.9075C47.6274 15.5045 47.7747 14.9303 47.7747 14.185C47.7747 13.4397 47.6274 12.8655 47.3327 12.4625C47.0424 12.0552 46.5982 11.8515 46.0002 11.8515C45.3936 11.8515 44.9429 12.0552 44.6482 12.4625C44.3536 12.8655 44.2062 13.4397 44.2062 14.185C44.2062 14.9303 44.3536 15.5045 44.6482 15.9075C44.9429 16.3062 45.3936 16.5055 46.0002 16.5055ZM59.7734 10.87L57.6479 17.5H56.5364C56.4064 17.5 56.3154 17.4155 56.2634 17.2465L54.9439 13.119C54.9093 13.002 54.8768 12.885 54.8464 12.768C54.8204 12.651 54.7966 12.5362 54.7749 12.4235C54.7273 12.6575 54.6688 12.8915 54.5994 13.1255L53.2604 17.2465C53.2128 17.4155 53.1109 17.5 52.9549 17.5H51.8954L49.7699 10.87H50.8749C50.9833 10.87 51.0721 10.8982 51.1414 10.9545C51.2151 11.0065 51.2628 11.0693 51.2844 11.143L52.3894 15.004C52.4328 15.1817 52.4696 15.355 52.4999 15.524C52.5346 15.6887 52.5649 15.8533 52.5909 16.018C52.6343 15.8533 52.6798 15.6887 52.7274 15.524C52.7751 15.355 52.8249 15.1817 52.8769 15.004L54.1184 11.1235C54.1401 11.0455 54.1834 10.9827 54.2484 10.935C54.3178 10.883 54.4001 10.857 54.4954 10.857H55.1064C55.2061 10.857 55.2906 10.883 55.3599 10.935C55.4293 10.9827 55.4748 11.0455 55.4964 11.1235L56.7054 15.004C56.7574 15.1817 56.8051 15.355 56.8484 15.524C56.8961 15.693 56.9394 15.862 56.9784 16.031C57.0088 15.8663 57.0413 15.6995 57.0759 15.5305C57.1106 15.3615 57.1518 15.186 57.1994 15.004L58.3239 11.143C58.3499 11.065 58.3976 11 58.4669 10.948C58.5363 10.896 58.6208 10.87 58.7204 10.87H59.7734ZM66.6301 10.766C67.1198 10.766 67.5618 10.8462 67.9561 11.0065C68.3548 11.1668 68.6928 11.3943 68.9701 11.689C69.2518 11.9837 69.4684 12.3412 69.6201 12.7615C69.7718 13.1818 69.8476 13.6542 69.8476 14.1785C69.8476 14.7028 69.7718 15.1752 69.6201 15.5955C69.4684 16.0158 69.2518 16.3755 68.9701 16.6745C68.6928 16.9692 68.3548 17.1967 67.9561 17.357C67.5618 17.5173 67.1198 17.5975 66.6301 17.5975C66.1361 17.5975 65.6898 17.5173 65.2911 17.357C64.8968 17.1967 64.5588 16.9692 64.2771 16.6745C63.9954 16.3755 63.7788 16.0158 63.6271 15.5955C63.4754 15.1752 63.3996 14.7028 63.3996 14.1785C63.3996 13.6542 63.4754 13.1818 63.6271 12.7615C63.7788 12.3412 63.9954 11.9837 64.2771 11.689C64.5588 11.3943 64.8968 11.1668 65.2911 11.0065C65.6898 10.8462 66.1361 10.766 66.6301 10.766ZM66.6301 16.5055C67.2281 16.5055 67.6723 16.3062 67.9626 15.9075C68.2573 15.5045 68.4046 14.9303 68.4046 14.185C68.4046 13.4397 68.2573 12.8655 67.9626 12.4625C67.6723 12.0552 67.2281 11.8515 66.6301 11.8515C66.0234 11.8515 65.5728 12.0552 65.2781 12.4625C64.9834 12.8655 64.8361 13.4397 64.8361 14.185C64.8361 14.9303 64.9834 15.5045 65.2781 15.9075C65.5728 16.3062 66.0234 16.5055 66.6301 16.5055ZM72.5099 12.0985C72.7179 11.6782 72.9692 11.3488 73.2639 11.1105C73.5585 10.8678 73.9117 10.7465 74.3234 10.7465C74.4664 10.7465 74.6007 10.7638 74.7264 10.7985C74.852 10.8288 74.9647 10.8765 75.0644 10.9415L74.9669 11.9945C74.9495 12.0682 74.9214 12.1202 74.8824 12.1505C74.8477 12.1765 74.8 12.1895 74.7394 12.1895C74.6744 12.1895 74.5812 12.1787 74.4599 12.157C74.3385 12.131 74.2107 12.118 74.0764 12.118C73.8814 12.118 73.708 12.1462 73.5564 12.2025C73.409 12.2588 73.2747 12.3412 73.1534 12.4495C73.0364 12.5578 72.9324 12.69 72.8414 12.846C72.7504 13.002 72.6659 13.1797 72.5879 13.379V17.5H71.1904V10.87H72.0029C72.1502 10.87 72.252 10.8982 72.3084 10.9545C72.3647 11.0065 72.4037 11.0997 72.4254 11.234L72.5099 12.0985ZM80.3447 11.6565C80.6177 11.3878 80.9167 11.1733 81.2417 11.013C81.5667 10.8483 81.9459 10.766 82.3792 10.766C82.7432 10.766 83.0617 10.8267 83.3347 10.948C83.612 11.0693 83.8439 11.2405 84.0302 11.4615C84.2209 11.6825 84.3639 11.949 84.4592 12.261C84.5545 12.5687 84.6022 12.9088 84.6022 13.2815V17.5H83.2112V13.2815C83.2112 12.8352 83.1072 12.4885 82.8992 12.2415C82.6955 11.9945 82.3835 11.871 81.9632 11.871C81.6512 11.871 81.3609 11.9425 81.0922 12.0855C80.8279 12.2285 80.5787 12.4235 80.3447 12.6705V17.5H78.9472V7.88H80.3447V11.6565ZM87.6903 10.87V17.5H86.2928V10.87H87.6903ZM87.9243 8.868C87.9243 8.99367 87.8983 9.11283 87.8463 9.2255C87.7986 9.33817 87.7315 9.43783 87.6448 9.5245C87.5581 9.60683 87.4563 9.674 87.3393 9.726C87.2266 9.77367 87.1053 9.7975 86.9753 9.7975C86.8496 9.7975 86.7305 9.77367 86.6178 9.726C86.5095 9.674 86.4141 9.60683 86.3318 9.5245C86.2495 9.43783 86.1823 9.33817 86.1303 9.2255C86.0826 9.11283 86.0588 8.99367 86.0588 8.868C86.0588 8.738 86.0826 8.61667 86.1303 8.504C86.1823 8.39133 86.2495 8.29383 86.3318 8.2115C86.4141 8.12483 86.5095 8.05767 86.6178 8.01C86.7305 7.958 86.8496 7.932 86.9753 7.932C87.1053 7.932 87.2266 7.958 87.3393 8.01C87.4563 8.05767 87.5581 8.12483 87.6448 8.2115C87.7315 8.29383 87.7986 8.39133 87.8463 8.504C87.8983 8.61667 87.9243 8.738 87.9243 8.868ZM93.6777 12.5015C93.4827 12.2502 93.2682 12.0747 93.0342 11.975C92.8002 11.8753 92.5467 11.8255 92.2737 11.8255C91.7277 11.8255 91.3009 12.027 90.9932 12.43C90.6856 12.8287 90.5317 13.4202 90.5317 14.2045C90.5317 14.6118 90.5664 14.9607 90.6357 15.251C90.7051 15.537 90.8047 15.771 90.9347 15.953C91.0647 16.135 91.2229 16.2672 91.4092 16.3495C91.5956 16.4318 91.8057 16.473 92.0397 16.473C92.3951 16.473 92.7006 16.3972 92.9562 16.2455C93.2162 16.0895 93.4567 15.8707 93.6777 15.589V12.5015ZM95.0752 7.88V17.5H94.2302C94.0439 17.5 93.9247 17.4112 93.8727 17.2335L93.7492 16.512C93.4719 16.837 93.1556 17.0992 92.8002 17.2985C92.4492 17.4978 92.0397 17.5975 91.5717 17.5975C91.1991 17.5975 90.8611 17.5238 90.5577 17.3765C90.2544 17.2248 89.9944 17.006 89.7777 16.72C89.5611 16.434 89.3921 16.0808 89.2707 15.6605C89.1537 15.2358 89.0952 14.7505 89.0952 14.2045C89.0952 13.7105 89.1602 13.2533 89.2902 12.833C89.4246 12.4127 89.6152 12.0487 89.8622 11.741C90.1092 11.429 90.4082 11.1863 90.7592 11.013C91.1146 10.8353 91.5111 10.7465 91.9487 10.7465C92.3387 10.7465 92.6702 10.8093 92.9432 10.935C93.2162 11.0563 93.4611 11.2275 93.6777 11.4485V7.88H95.0752ZM101.133 13.4375C101.133 13.2035 101.098 12.9868 101.029 12.7875C100.964 12.5838 100.866 12.4083 100.736 12.261C100.606 12.1093 100.444 11.9923 100.249 11.91C100.058 11.8233 99.837 11.78 99.5856 11.78C99.0786 11.78 98.68 11.9252 98.3896 12.2155C98.0993 12.5058 97.9151 12.9132 97.8371 13.4375H101.133ZM97.7981 14.2955C97.8155 14.6725 97.874 14.9997 97.9736 15.277C98.0733 15.55 98.2055 15.7775 98.3701 15.9595C98.5391 16.1415 98.7385 16.278 98.9681 16.369C99.2021 16.4557 99.4621 16.499 99.7481 16.499C100.021 16.499 100.257 16.4687 100.457 16.408C100.656 16.343 100.829 16.2737 100.977 16.2C101.124 16.122 101.25 16.0527 101.354 15.992C101.458 15.927 101.553 15.8945 101.64 15.8945C101.752 15.8945 101.839 15.9378 101.9 16.0245L102.296 16.538C102.131 16.733 101.945 16.8977 101.737 17.032C101.529 17.1663 101.308 17.2768 101.074 17.3635C100.84 17.4458 100.6 17.5043 100.353 17.539C100.106 17.578 99.8651 17.5975 99.6311 17.5975C99.1718 17.5975 98.745 17.5217 98.3506 17.37C97.9606 17.214 97.6205 16.9865 97.3301 16.6875C97.0441 16.3885 96.8188 16.018 96.6541 15.576C96.4938 15.134 96.4136 14.6248 96.4136 14.0485C96.4136 13.5892 96.4851 13.1602 96.6281 12.7615C96.7755 12.3628 96.9835 12.0162 97.2521 11.7215C97.5251 11.4268 97.8545 11.195 98.2401 11.026C98.6301 10.8527 99.07 10.766 99.5596 10.766C99.967 10.766 100.344 10.8332 100.691 10.9675C101.037 11.0975 101.336 11.2903 101.588 11.546C101.839 11.8017 102.034 12.1158 102.173 12.4885C102.316 12.8568 102.387 13.2772 102.387 13.7495C102.387 13.9662 102.363 14.1113 102.316 14.185C102.268 14.2587 102.181 14.2955 102.056 14.2955H97.7981ZM107.383 17.5V11.9815L106.733 11.8905C106.624 11.8688 106.536 11.8298 106.466 11.7735C106.401 11.7172 106.369 11.637 106.369 11.533V10.961H107.383V10.6815C107.383 10.2742 107.448 9.89933 107.578 9.557C107.708 9.21467 107.905 8.91783 108.169 8.6665C108.434 8.41517 108.763 8.22017 109.157 8.0815C109.556 7.9385 110.022 7.867 110.555 7.867C110.728 7.867 110.906 7.87783 111.088 7.8995C111.274 7.92117 111.432 7.95367 111.562 7.997L111.517 8.725C111.508 8.816 111.454 8.868 111.354 8.881C111.255 8.88967 111.122 8.894 110.958 8.894C110.555 8.894 110.212 8.933 109.931 9.011C109.649 9.08467 109.419 9.1995 109.242 9.3555C109.064 9.50717 108.934 9.69783 108.852 9.9275C108.774 10.1528 108.735 10.4172 108.735 10.7205V10.961H112.797V17.5H111.4V11.9685H108.78V17.5H107.383ZM115.994 7.88V17.5H114.596V7.88H115.994ZM119.844 17.604C119.294 17.604 118.869 17.4502 118.57 17.1425C118.276 16.8305 118.128 16.3928 118.128 15.8295V11.9685H117.4C117.322 11.9685 117.255 11.9447 117.199 11.897C117.142 11.845 117.114 11.7692 117.114 11.6695V11.104L118.187 10.948L118.492 9.0305C118.514 8.95683 118.551 8.89833 118.603 8.855C118.655 8.80733 118.724 8.7835 118.811 8.7835H119.526V10.961H121.365V11.9685H119.526V15.732C119.526 15.9703 119.584 16.1523 119.701 16.278C119.818 16.4037 119.974 16.4665 120.169 16.4665C120.278 16.4665 120.371 16.4535 120.449 16.4275C120.527 16.3972 120.594 16.3668 120.65 16.3365C120.707 16.3018 120.754 16.2715 120.793 16.2455C120.837 16.2152 120.878 16.2 120.917 16.2C120.995 16.2 121.058 16.2433 121.105 16.33L121.521 17.0125C121.305 17.2032 121.049 17.3505 120.754 17.4545C120.46 17.5542 120.156 17.604 119.844 17.604ZM126.764 13.4375C126.764 13.2035 126.73 12.9868 126.66 12.7875C126.595 12.5838 126.498 12.4083 126.368 12.261C126.238 12.1093 126.075 11.9923 125.88 11.91C125.69 11.8233 125.469 11.78 125.217 11.78C124.71 11.78 124.312 11.9252 124.021 12.2155C123.731 12.5058 123.547 12.9132 123.469 13.4375H126.764ZM123.43 14.2955C123.447 14.6725 123.506 14.9997 123.605 15.277C123.705 15.55 123.837 15.7775 124.002 15.9595C124.171 16.1415 124.37 16.278 124.6 16.369C124.834 16.4557 125.094 16.499 125.38 16.499C125.653 16.499 125.889 16.4687 126.088 16.408C126.288 16.343 126.461 16.2737 126.608 16.2C126.756 16.122 126.881 16.0527 126.985 15.992C127.089 15.927 127.185 15.8945 127.271 15.8945C127.384 15.8945 127.471 15.9378 127.531 16.0245L127.928 16.538C127.763 16.733 127.577 16.8977 127.369 17.032C127.161 17.1663 126.94 17.2768 126.706 17.3635C126.472 17.4458 126.231 17.5043 125.984 17.539C125.737 17.578 125.497 17.5975 125.263 17.5975C124.804 17.5975 124.377 17.5217 123.982 17.37C123.592 17.214 123.252 16.9865 122.962 16.6875C122.676 16.3885 122.451 16.018 122.286 15.576C122.126 15.134 122.045 14.6248 122.045 14.0485C122.045 13.5892 122.117 13.1602 122.26 12.7615C122.407 12.3628 122.615 12.0162 122.884 11.7215C123.157 11.4268 123.486 11.195 123.872 11.026C124.262 10.8527 124.702 10.766 125.191 10.766C125.599 10.766 125.976 10.8332 126.322 10.9675C126.669 11.0975 126.968 11.2903 127.219 11.546C127.471 11.8017 127.666 12.1158 127.804 12.4885C127.947 12.8568 128.019 13.2772 128.019 13.7495C128.019 13.9662 127.995 14.1113 127.947 14.185C127.9 14.2587 127.813 14.2955 127.687 14.2955H123.43ZM130.642 12.0985C130.85 11.6782 131.101 11.3488 131.396 11.1105C131.69 10.8678 132.044 10.7465 132.455 10.7465C132.598 10.7465 132.733 10.7638 132.858 10.7985C132.984 10.8288 133.097 10.8765 133.196 10.9415L133.099 11.9945C133.081 12.0682 133.053 12.1202 133.014 12.1505C132.98 12.1765 132.932 12.1895 132.871 12.1895C132.806 12.1895 132.713 12.1787 132.592 12.157C132.47 12.131 132.343 12.118 132.208 12.118C132.013 12.118 131.84 12.1462 131.688 12.2025C131.541 12.2588 131.407 12.3412 131.285 12.4495C131.168 12.5578 131.064 12.69 130.973 12.846C130.882 13.002 130.798 13.1797 130.72 13.379V17.5H129.322V10.87H130.135C130.282 10.87 130.384 10.8982 130.44 10.9545C130.497 11.0065 130.536 11.0997 130.557 11.234L130.642 12.0985ZM141.311 12.5015C141.116 12.2545 140.901 12.0812 140.667 11.9815C140.433 11.8775 140.18 11.8255 139.907 11.8255C139.361 11.8255 138.934 12.027 138.626 12.43C138.318 12.8287 138.165 13.4202 138.165 14.2045C138.165 14.6118 138.199 14.9607 138.269 15.251C138.338 15.537 138.438 15.771 138.568 15.953C138.698 16.135 138.856 16.2672 139.042 16.3495C139.228 16.4318 139.439 16.473 139.673 16.473C140.028 16.473 140.333 16.3972 140.589 16.2455C140.849 16.0895 141.09 15.8707 141.311 15.589V12.5015ZM142.708 10.87V19.7035H141.311V16.5965C141.038 16.8955 140.73 17.1382 140.388 17.3245C140.05 17.5065 139.655 17.5975 139.205 17.5975C138.832 17.5975 138.494 17.5238 138.191 17.3765C137.887 17.2248 137.627 17.006 137.411 16.72C137.194 16.434 137.025 16.0808 136.904 15.6605C136.787 15.2358 136.728 14.7505 136.728 14.2045C136.728 13.7105 136.793 13.2533 136.923 12.833C137.057 12.4127 137.248 12.0487 137.495 11.741C137.742 11.429 138.041 11.1863 138.392 11.013C138.747 10.8353 139.144 10.7465 139.582 10.7465C139.794 10.7465 139.987 10.766 140.16 10.805C140.338 10.8397 140.5 10.8938 140.648 10.9675C140.799 11.0368 140.938 11.1235 141.064 11.2275C141.189 11.3272 141.308 11.442 141.421 11.572L141.506 11.1365C141.558 10.9588 141.677 10.87 141.863 10.87H142.708ZM150.007 10.87V17.5H149.162C148.976 17.5 148.856 17.4112 148.804 17.2335L148.7 16.616C148.562 16.7633 148.414 16.8977 148.258 17.019C148.107 17.1403 147.944 17.2443 147.771 17.331C147.598 17.4177 147.411 17.4848 147.212 17.5325C147.017 17.5802 146.807 17.604 146.581 17.604C146.217 17.604 145.897 17.5433 145.619 17.422C145.342 17.3007 145.108 17.1295 144.917 16.9085C144.731 16.6875 144.59 16.4232 144.495 16.1155C144.4 15.8035 144.352 15.4612 144.352 15.0885V10.87H145.749V15.0885C145.749 15.5348 145.851 15.8815 146.055 16.1285C146.263 16.3755 146.577 16.499 146.997 16.499C147.305 16.499 147.591 16.4297 147.855 16.291C148.124 16.148 148.375 15.953 148.609 15.706V10.87H150.007ZM156.053 13.4375C156.053 13.2035 156.018 12.9868 155.949 12.7875C155.884 12.5838 155.786 12.4083 155.656 12.261C155.526 12.1093 155.364 11.9923 155.169 11.91C154.978 11.8233 154.757 11.78 154.506 11.78C153.999 11.78 153.6 11.9252 153.31 12.2155C153.019 12.5058 152.835 12.9132 152.757 13.4375H156.053ZM152.718 14.2955C152.735 14.6725 152.794 14.9997 152.894 15.277C152.993 15.55 153.125 15.7775 153.29 15.9595C153.459 16.1415 153.658 16.278 153.888 16.369C154.122 16.4557 154.382 16.499 154.668 16.499C154.941 16.499 155.177 16.4687 155.377 16.408C155.576 16.343 155.749 16.2737 155.897 16.2C156.044 16.122 156.17 16.0527 156.274 15.992C156.378 15.927 156.473 15.8945 156.56 15.8945C156.672 15.8945 156.759 15.9378 156.82 16.0245L157.216 16.538C157.051 16.733 156.865 16.8977 156.657 17.032C156.449 17.1663 156.228 17.2768 155.994 17.3635C155.76 17.4458 155.52 17.5043 155.273 17.539C155.026 17.578 154.785 17.5975 154.551 17.5975C154.092 17.5975 153.665 17.5217 153.271 17.37C152.881 17.214 152.54 16.9865 152.25 16.6875C151.964 16.3885 151.739 16.018 151.574 15.576C151.414 15.134 151.334 14.6248 151.334 14.0485C151.334 13.5892 151.405 13.1602 151.548 12.7615C151.695 12.3628 151.903 12.0162 152.172 11.7215C152.445 11.4268 152.774 11.195 153.16 11.026C153.55 10.8527 153.99 10.766 154.48 10.766C154.887 10.766 155.264 10.8332 155.611 10.9675C155.957 11.0975 156.256 11.2903 156.508 11.546C156.759 11.8017 156.954 12.1158 157.093 12.4885C157.236 12.8568 157.307 13.2772 157.307 13.7495C157.307 13.9662 157.283 14.1113 157.236 14.185C157.188 14.2587 157.101 14.2955 156.976 14.2955H152.718ZM162.569 12.0725C162.534 12.1332 162.495 12.1765 162.452 12.2025C162.408 12.2285 162.354 12.2415 162.289 12.2415C162.216 12.2415 162.135 12.2198 162.049 12.1765C161.962 12.1288 161.86 12.0768 161.743 12.0205C161.626 11.9642 161.488 11.9143 161.327 11.871C161.171 11.8233 160.987 11.7995 160.775 11.7995C160.601 11.7995 160.443 11.8212 160.3 11.8645C160.162 11.9035 160.042 11.962 159.943 12.04C159.847 12.1137 159.774 12.2025 159.722 12.3065C159.67 12.4062 159.644 12.5145 159.644 12.6315C159.644 12.7875 159.691 12.9175 159.787 13.0215C159.882 13.1255 160.008 13.2165 160.164 13.2945C160.32 13.3682 160.497 13.4353 160.697 13.496C160.896 13.5567 161.1 13.6217 161.308 13.691C161.516 13.7603 161.719 13.8405 161.919 13.9315C162.118 14.0225 162.296 14.1352 162.452 14.2695C162.608 14.3995 162.733 14.5598 162.829 14.7505C162.924 14.9368 162.972 15.1643 162.972 15.433C162.972 15.745 162.915 16.0332 162.803 16.2975C162.69 16.5618 162.525 16.7915 162.309 16.9865C162.092 17.1815 161.821 17.3332 161.496 17.4415C161.176 17.5498 160.807 17.604 160.391 17.604C160.162 17.604 159.938 17.5823 159.722 17.539C159.509 17.5 159.306 17.4458 159.111 17.3765C158.92 17.3028 158.74 17.2162 158.571 17.1165C158.407 17.0168 158.259 16.9085 158.129 16.7915L158.454 16.2585C158.493 16.1935 158.541 16.1437 158.597 16.109C158.658 16.07 158.732 16.0505 158.818 16.0505C158.909 16.0505 158.998 16.0808 159.085 16.1415C159.176 16.1978 159.28 16.2607 159.397 16.33C159.518 16.3993 159.663 16.4643 159.832 16.525C160.001 16.5813 160.211 16.6095 160.463 16.6095C160.671 16.6095 160.851 16.5857 161.002 16.538C161.154 16.486 161.28 16.4167 161.379 16.33C161.479 16.2433 161.553 16.1458 161.6 16.0375C161.648 15.9248 161.672 15.8057 161.672 15.68C161.672 15.511 161.624 15.3723 161.529 15.264C161.433 15.1557 161.306 15.0625 161.145 14.9845C160.989 14.9065 160.809 14.8372 160.606 14.7765C160.406 14.7158 160.203 14.6508 159.995 14.5815C159.787 14.5122 159.581 14.432 159.377 14.341C159.178 14.25 158.998 14.1352 158.838 13.9965C158.682 13.8535 158.556 13.6823 158.461 13.483C158.365 13.2793 158.318 13.0323 158.318 12.742C158.318 12.4777 158.37 12.2263 158.474 11.988C158.582 11.7497 158.738 11.5395 158.942 11.3575C159.15 11.1755 159.403 11.0325 159.702 10.9285C160.006 10.8202 160.354 10.766 160.749 10.766C161.195 10.766 161.6 10.8375 161.964 10.9805C162.328 11.1235 162.634 11.3185 162.881 11.5655L162.569 12.0725ZM170.72 17.5H169.323V11.9685H166.092V15.732C166.092 15.9703 166.151 16.1523 166.268 16.278C166.385 16.4037 166.541 16.4665 166.736 16.4665C166.844 16.4665 166.937 16.4535 167.015 16.4275C167.093 16.3972 167.16 16.3668 167.217 16.3365C167.273 16.3018 167.321 16.2715 167.36 16.2455C167.403 16.2152 167.444 16.2 167.483 16.2C167.561 16.2 167.624 16.2433 167.672 16.33L168.088 17.0125C167.871 17.2032 167.615 17.3505 167.321 17.4545C167.026 17.5542 166.723 17.604 166.411 17.604C165.86 17.604 165.436 17.4502 165.137 17.1425C164.842 16.8305 164.695 16.3928 164.695 15.8295V11.9685H163.967C163.889 11.9685 163.821 11.9447 163.765 11.897C163.709 11.845 163.681 11.7692 163.681 11.6695V11.104L164.753 10.948L165.059 9.0305C165.08 8.95683 165.117 8.89833 165.169 8.855C165.221 8.80733 165.29 8.7835 165.377 8.7835H166.092V10.961H170.72V17.5ZM171.006 8.8355C171.006 8.96117 170.98 9.08033 170.928 9.193C170.88 9.30133 170.813 9.39883 170.727 9.4855C170.64 9.56783 170.538 9.635 170.421 9.687C170.308 9.73467 170.189 9.7585 170.064 9.7585C169.938 9.7585 169.819 9.73467 169.706 9.687C169.598 9.635 169.5 9.56783 169.414 9.4855C169.331 9.39883 169.264 9.30133 169.212 9.193C169.164 9.08033 169.141 8.96117 169.141 8.8355C169.141 8.7055 169.164 8.58417 169.212 8.4715C169.264 8.3545 169.331 8.25483 169.414 8.1725C169.5 8.08583 169.598 8.01867 169.706 7.971C169.819 7.919 169.938 7.893 170.064 7.893C170.189 7.893 170.308 7.919 170.421 7.971C170.538 8.01867 170.64 8.08583 170.727 8.1725C170.813 8.25483 170.88 8.3545 170.928 8.4715C170.98 8.58417 171.006 8.7055 171.006 8.8355ZM175.353 10.766C175.842 10.766 176.284 10.8462 176.679 11.0065C177.077 11.1668 177.415 11.3943 177.693 11.689C177.974 11.9837 178.191 12.3412 178.343 12.7615C178.494 13.1818 178.57 13.6542 178.57 14.1785C178.57 14.7028 178.494 15.1752 178.343 15.5955C178.191 16.0158 177.974 16.3755 177.693 16.6745C177.415 16.9692 177.077 17.1967 176.679 17.357C176.284 17.5173 175.842 17.5975 175.353 17.5975C174.859 17.5975 174.412 17.5173 174.014 17.357C173.619 17.1967 173.281 16.9692 173 16.6745C172.718 16.3755 172.501 16.0158 172.35 15.5955C172.198 15.1752 172.122 14.7028 172.122 14.1785C172.122 13.6542 172.198 13.1818 172.35 12.7615C172.501 12.3412 172.718 11.9837 173 11.689C173.281 11.3943 173.619 11.1668 174.014 11.0065C174.412 10.8462 174.859 10.766 175.353 10.766ZM175.353 16.5055C175.951 16.5055 176.395 16.3062 176.685 15.9075C176.98 15.5045 177.127 14.9303 177.127 14.185C177.127 13.4397 176.98 12.8655 176.685 12.4625C176.395 12.0552 175.951 11.8515 175.353 11.8515C174.746 11.8515 174.295 12.0552 174.001 12.4625C173.706 12.8655 173.559 13.4397 173.559 14.185C173.559 14.9303 173.706 15.5045 174.001 15.9075C174.295 16.3062 174.746 16.5055 175.353 16.5055ZM181.22 11.7475C181.363 11.6002 181.51 11.468 181.662 11.351C181.818 11.2297 181.982 11.1257 182.156 11.039C182.329 10.9523 182.513 10.8852 182.708 10.8375C182.903 10.7898 183.115 10.766 183.345 10.766C183.709 10.766 184.028 10.8267 184.301 10.948C184.578 11.0693 184.81 11.2405 184.996 11.4615C185.187 11.6825 185.33 11.949 185.425 12.261C185.52 12.5687 185.568 12.9088 185.568 13.2815V17.5H184.177V13.2815C184.177 12.8352 184.073 12.4885 183.865 12.2415C183.661 11.9945 183.349 11.871 182.929 11.871C182.617 11.871 182.327 11.9425 182.058 12.0855C181.794 12.2285 181.545 12.4235 181.311 12.6705V17.5H179.913V10.87H180.758C180.949 10.87 181.07 10.9588 181.122 11.1365L181.22 11.7475ZM191.159 12.0725C191.124 12.1332 191.085 12.1765 191.042 12.2025C190.998 12.2285 190.944 12.2415 190.879 12.2415C190.805 12.2415 190.725 12.2198 190.639 12.1765C190.552 12.1288 190.45 12.0768 190.333 12.0205C190.216 11.9642 190.077 11.9143 189.917 11.871C189.761 11.8233 189.577 11.7995 189.365 11.7995C189.191 11.7995 189.033 11.8212 188.89 11.8645C188.751 11.9035 188.632 11.962 188.533 12.04C188.437 12.1137 188.364 12.2025 188.312 12.3065C188.26 12.4062 188.234 12.5145 188.234 12.6315C188.234 12.7875 188.281 12.9175 188.377 13.0215C188.472 13.1255 188.598 13.2165 188.754 13.2945C188.91 13.3682 189.087 13.4353 189.287 13.496C189.486 13.5567 189.69 13.6217 189.898 13.691C190.106 13.7603 190.309 13.8405 190.509 13.9315C190.708 14.0225 190.886 14.1352 191.042 14.2695C191.198 14.3995 191.323 14.5598 191.419 14.7505C191.514 14.9368 191.562 15.1643 191.562 15.433C191.562 15.745 191.505 16.0332 191.393 16.2975C191.28 16.5618 191.115 16.7915 190.899 16.9865C190.682 17.1815 190.411 17.3332 190.086 17.4415C189.765 17.5498 189.397 17.604 188.981 17.604C188.751 17.604 188.528 17.5823 188.312 17.539C188.099 17.5 187.896 17.4458 187.701 17.3765C187.51 17.3028 187.33 17.2162 187.161 17.1165C186.996 17.0168 186.849 16.9085 186.719 16.7915L187.044 16.2585C187.083 16.1935 187.131 16.1437 187.187 16.109C187.248 16.07 187.321 16.0505 187.408 16.0505C187.499 16.0505 187.588 16.0808 187.675 16.1415C187.766 16.1978 187.87 16.2607 187.987 16.33C188.108 16.3993 188.253 16.4643 188.422 16.525C188.591 16.5813 188.801 16.6095 189.053 16.6095C189.261 16.6095 189.44 16.5857 189.592 16.538C189.744 16.486 189.869 16.4167 189.969 16.33C190.069 16.2433 190.142 16.1458 190.19 16.0375C190.238 15.9248 190.262 15.8057 190.262 15.68C190.262 15.511 190.214 15.3723 190.119 15.264C190.023 15.1557 189.895 15.0625 189.735 14.9845C189.579 14.9065 189.399 14.8372 189.196 14.7765C188.996 14.7158 188.793 14.6508 188.585 14.5815C188.377 14.5122 188.171 14.432 187.967 14.341C187.768 14.25 187.588 14.1352 187.428 13.9965C187.272 13.8535 187.146 13.6823 187.051 13.483C186.955 13.2793 186.908 13.0323 186.908 12.742C186.908 12.4777 186.96 12.2263 187.064 11.988C187.172 11.7497 187.328 11.5395 187.532 11.3575C187.74 11.1755 187.993 11.0325 188.292 10.9285C188.595 10.8202 188.944 10.766 189.339 10.766C189.785 10.766 190.19 10.8375 190.554 10.9805C190.918 11.1235 191.224 11.3185 191.471 11.5655L191.159 12.0725ZM197.568 10.87V17.5H196.171V10.87H197.568ZM197.802 8.868C197.802 8.99367 197.776 9.11283 197.724 9.2255C197.677 9.33817 197.609 9.43783 197.523 9.5245C197.436 9.60683 197.334 9.674 197.217 9.726C197.105 9.77367 196.983 9.7975 196.853 9.7975C196.728 9.7975 196.608 9.77367 196.496 9.726C196.387 9.674 196.292 9.60683 196.21 9.5245C196.127 9.43783 196.06 9.33817 196.008 9.2255C195.961 9.11283 195.937 8.99367 195.937 8.868C195.937 8.738 195.961 8.61667 196.008 8.504C196.06 8.39133 196.127 8.29383 196.21 8.2115C196.292 8.12483 196.387 8.05767 196.496 8.01C196.608 7.958 196.728 7.932 196.853 7.932C196.983 7.932 197.105 7.958 197.217 8.01C197.334 8.05767 197.436 8.12483 197.523 8.2115C197.609 8.29383 197.677 8.39133 197.724 8.504C197.776 8.61667 197.802 8.738 197.802 8.868ZM200.631 11.7475C200.774 11.6002 200.921 11.468 201.073 11.351C201.229 11.2297 201.393 11.1257 201.567 11.039C201.74 10.9523 201.924 10.8852 202.119 10.8375C202.314 10.7898 202.526 10.766 202.756 10.766C203.12 10.766 203.439 10.8267 203.712 10.948C203.989 11.0693 204.221 11.2405 204.407 11.4615C204.598 11.6825 204.741 11.949 204.836 12.261C204.931 12.5687 204.979 12.9088 204.979 13.2815V17.5H203.588V13.2815C203.588 12.8352 203.484 12.4885 203.276 12.2415C203.072 11.9945 202.76 11.871 202.34 11.871C202.028 11.871 201.738 11.9425 201.469 12.0855C201.205 12.2285 200.956 12.4235 200.722 12.6705V17.5H199.324V10.87H200.169C200.36 10.87 200.481 10.9588 200.533 11.1365L200.631 11.7475ZM215.401 10.87L211.748 19.385C211.7 19.4847 211.642 19.5627 211.572 19.619C211.507 19.6753 211.406 19.7035 211.267 19.7035H210.233L211.455 17.0515L208.751 10.87H209.967C210.084 10.87 210.173 10.8982 210.233 10.9545C210.298 11.0065 210.346 11.0693 210.376 11.143L211.956 14.9065C211.995 15.0148 212.03 15.1232 212.06 15.2315C212.095 15.3355 212.127 15.4438 212.157 15.5565C212.192 15.4438 212.227 15.3333 212.261 15.225C212.296 15.1167 212.335 15.0083 212.378 14.9L213.893 11.143C213.923 11.065 213.973 11 214.042 10.948C214.116 10.896 214.196 10.87 214.283 10.87H215.401ZM218.987 10.766C219.476 10.766 219.918 10.8462 220.313 11.0065C220.711 11.1668 221.049 11.3943 221.327 11.689C221.608 11.9837 221.825 12.3412 221.977 12.7615C222.128 13.1818 222.204 13.6542 222.204 14.1785C222.204 14.7028 222.128 15.1752 221.977 15.5955C221.825 16.0158 221.608 16.3755 221.327 16.6745C221.049 16.9692 220.711 17.1967 220.313 17.357C219.918 17.5173 219.476 17.5975 218.987 17.5975C218.493 17.5975 218.046 17.5173 217.648 17.357C217.253 17.1967 216.915 16.9692 216.634 16.6745C216.352 16.3755 216.135 16.0158 215.984 15.5955C215.832 15.1752 215.756 14.7028 215.756 14.1785C215.756 13.6542 215.832 13.1818 215.984 12.7615C216.135 12.3412 216.352 11.9837 216.634 11.689C216.915 11.3943 217.253 11.1668 217.648 11.0065C218.046 10.8462 218.493 10.766 218.987 10.766ZM218.987 16.5055C219.585 16.5055 220.029 16.3062 220.319 15.9075C220.614 15.5045 220.761 14.9303 220.761 14.185C220.761 13.4397 220.614 12.8655 220.319 12.4625C220.029 12.0552 219.585 11.8515 218.987 11.8515C218.38 11.8515 217.929 12.0552 217.635 12.4625C217.34 12.8655 217.193 13.4397 217.193 14.185C217.193 14.9303 217.34 15.5045 217.635 15.9075C217.929 16.3062 218.38 16.5055 218.987 16.5055ZM229.137 10.87V17.5H228.292C228.105 17.5 227.986 17.4112 227.934 17.2335L227.83 16.616C227.692 16.7633 227.544 16.8977 227.388 17.019C227.237 17.1403 227.074 17.2443 226.901 17.331C226.727 17.4177 226.541 17.4848 226.342 17.5325C226.147 17.5802 225.937 17.604 225.711 17.604C225.347 17.604 225.027 17.5433 224.749 17.422C224.472 17.3007 224.238 17.1295 224.047 16.9085C223.861 16.6875 223.72 16.4232 223.625 16.1155C223.529 15.8035 223.482 15.4612 223.482 15.0885V10.87H224.879V15.0885C224.879 15.5348 224.981 15.8815 225.185 16.1285C225.393 16.3755 225.707 16.499 226.127 16.499C226.435 16.499 226.721 16.4297 226.985 16.291C227.254 16.148 227.505 15.953 227.739 15.706V10.87H229.137ZM232.153 12.0985C232.361 11.6782 232.613 11.3488 232.907 11.1105C233.202 10.8678 233.555 10.7465 233.967 10.7465C234.11 10.7465 234.244 10.7638 234.37 10.7985C234.496 10.8288 234.608 10.8765 234.708 10.9415L234.61 11.9945C234.593 12.0682 234.565 12.1202 234.526 12.1505C234.491 12.1765 234.444 12.1895 234.383 12.1895C234.318 12.1895 234.225 12.1787 234.103 12.157C233.982 12.131 233.854 12.118 233.72 12.118C233.525 12.118 233.352 12.1462 233.2 12.2025C233.053 12.2588 232.918 12.3412 232.797 12.4495C232.68 12.5578 232.576 12.69 232.485 12.846C232.394 13.002 232.309 13.1797 232.231 13.379V17.5H230.834V10.87H231.646C231.794 10.87 231.896 10.8982 231.952 10.9545C232.008 11.0065 232.047 11.0997 232.069 11.234L232.153 12.0985ZM242.822 12.5015C242.627 12.2502 242.413 12.0747 242.179 11.975C241.945 11.8753 241.691 11.8255 241.418 11.8255C240.872 11.8255 240.445 12.027 240.138 12.43C239.83 12.8287 239.676 13.4202 239.676 14.2045C239.676 14.6118 239.711 14.9607 239.78 15.251C239.85 15.537 239.949 15.771 240.079 15.953C240.209 16.135 240.367 16.2672 240.554 16.3495C240.74 16.4318 240.95 16.473 241.184 16.473C241.54 16.473 241.845 16.3972 242.101 16.2455C242.361 16.0895 242.601 15.8707 242.822 15.589V12.5015ZM244.22 7.88V17.5H243.375C243.188 17.5 243.069 17.4112 243.017 17.2335L242.894 16.512C242.616 16.837 242.3 17.0992 241.945 17.2985C241.594 17.4978 241.184 17.5975 240.716 17.5975C240.344 17.5975 240.006 17.5238 239.702 17.3765C239.399 17.2248 239.139 17.006 238.922 16.72C238.706 16.434 238.537 16.0808 238.415 15.6605C238.298 15.2358 238.24 14.7505 238.24 14.2045C238.24 13.7105 238.305 13.2533 238.435 12.833C238.569 12.4127 238.76 12.0487 239.007 11.741C239.254 11.429 239.553 11.1863 239.904 11.013C240.259 10.8353 240.656 10.7465 241.093 10.7465C241.483 10.7465 241.815 10.8093 242.088 10.935C242.361 11.0563 242.606 11.2275 242.822 11.4485V7.88H244.22ZM249.471 14.601C248.973 14.6183 248.552 14.6595 248.21 14.7245C247.868 14.7852 247.59 14.8653 247.378 14.965C247.166 15.0603 247.012 15.1752 246.917 15.3095C246.826 15.4438 246.78 15.5912 246.78 15.7515C246.78 15.9075 246.804 16.0418 246.852 16.1545C246.904 16.2628 246.973 16.3538 247.06 16.4275C247.151 16.4968 247.255 16.5488 247.372 16.5835C247.493 16.6138 247.625 16.629 247.768 16.629C248.132 16.629 248.444 16.5618 248.704 16.4275C248.968 16.2888 249.224 16.0895 249.471 15.8295V14.601ZM245.766 11.793C246.516 11.0953 247.408 10.7465 248.444 10.7465C248.825 10.7465 249.163 10.8093 249.458 10.935C249.757 11.0563 250.006 11.2297 250.206 11.455C250.409 11.6803 250.563 11.949 250.667 12.261C250.775 12.5687 250.83 12.911 250.83 13.288V17.5H250.206C250.071 17.5 249.969 17.4805 249.9 17.4415C249.831 17.3982 249.772 17.3137 249.725 17.188L249.588 16.6485C249.419 16.8002 249.252 16.9367 249.088 17.058C248.923 17.175 248.752 17.2747 248.574 17.357C248.401 17.4393 248.212 17.5 248.009 17.539C247.809 17.5823 247.588 17.604 247.346 17.604C247.077 17.604 246.826 17.5672 246.592 17.4935C246.362 17.4198 246.163 17.3093 245.994 17.162C245.825 17.0103 245.69 16.824 245.591 16.603C245.495 16.382 245.448 16.122 245.448 15.823C245.448 15.5673 245.515 15.3182 245.649 15.0755C245.788 14.8328 246.013 14.6162 246.325 14.4255C246.641 14.2305 247.055 14.0702 247.567 13.9445C248.082 13.8188 248.717 13.7473 249.471 13.73V13.288C249.471 12.8113 249.369 12.456 249.166 12.222C248.962 11.988 248.663 11.871 248.269 11.871C248 11.871 247.775 11.9057 247.593 11.975C247.411 12.04 247.252 12.1115 247.118 12.1895C246.984 12.2675 246.865 12.3412 246.761 12.4105C246.657 12.4755 246.546 12.508 246.429 12.508C246.334 12.508 246.251 12.4842 246.182 12.4365C246.117 12.3845 246.063 12.3217 246.02 12.248L245.766 11.793ZM256.425 12.0725C256.391 12.1332 256.352 12.1765 256.308 12.2025C256.265 12.2285 256.211 12.2415 256.146 12.2415C256.072 12.2415 255.992 12.2198 255.905 12.1765C255.819 12.1288 255.717 12.0768 255.6 12.0205C255.483 11.9642 255.344 11.9143 255.184 11.871C255.028 11.8233 254.844 11.7995 254.631 11.7995C254.458 11.7995 254.3 11.8212 254.157 11.8645C254.018 11.9035 253.899 11.962 253.799 12.04C253.704 12.1137 253.63 12.2025 253.578 12.3065C253.526 12.4062 253.5 12.5145 253.5 12.6315C253.5 12.7875 253.548 12.9175 253.643 13.0215C253.739 13.1255 253.864 13.2165 254.02 13.2945C254.176 13.3682 254.354 13.4353 254.553 13.496C254.753 13.5567 254.956 13.6217 255.164 13.691C255.372 13.7603 255.576 13.8405 255.775 13.9315C255.975 14.0225 256.152 14.1352 256.308 14.2695C256.464 14.3995 256.59 14.5598 256.685 14.7505C256.781 14.9368 256.828 15.1643 256.828 15.433C256.828 15.745 256.772 16.0332 256.659 16.2975C256.547 16.5618 256.382 16.7915 256.165 16.9865C255.949 17.1815 255.678 17.3332 255.353 17.4415C255.032 17.5498 254.664 17.604 254.248 17.604C254.018 17.604 253.795 17.5823 253.578 17.539C253.366 17.5 253.162 17.4458 252.967 17.3765C252.777 17.3028 252.597 17.2162 252.428 17.1165C252.263 17.0168 252.116 16.9085 251.986 16.7915L252.311 16.2585C252.35 16.1935 252.397 16.1437 252.454 16.109C252.514 16.07 252.588 16.0505 252.675 16.0505C252.766 16.0505 252.855 16.0808 252.941 16.1415C253.032 16.1978 253.136 16.2607 253.253 16.33C253.375 16.3993 253.52 16.4643 253.689 16.525C253.858 16.5813 254.068 16.6095 254.319 16.6095C254.527 16.6095 254.707 16.5857 254.859 16.538C255.01 16.486 255.136 16.4167 255.236 16.33C255.335 16.2433 255.409 16.1458 255.457 16.0375C255.504 15.9248 255.528 15.8057 255.528 15.68C255.528 15.511 255.481 15.3723 255.385 15.264C255.29 15.1557 255.162 15.0625 255.002 14.9845C254.846 14.9065 254.666 14.8372 254.462 14.7765C254.263 14.7158 254.059 14.6508 253.851 14.5815C253.643 14.5122 253.437 14.432 253.234 14.341C253.034 14.25 252.855 14.1352 252.694 13.9965C252.538 13.8535 252.413 13.6823 252.317 13.483C252.222 13.2793 252.174 13.0323 252.174 12.742C252.174 12.4777 252.226 12.2263 252.33 11.988C252.439 11.7497 252.595 11.5395 252.798 11.3575C253.006 11.1755 253.26 11.0325 253.559 10.9285C253.862 10.8202 254.211 10.766 254.605 10.766C255.052 10.766 255.457 10.8375 255.821 10.9805C256.185 11.1235 256.49 11.3185 256.737 11.5655L256.425 12.0725ZM259.539 11.6565C259.812 11.3878 260.111 11.1733 260.436 11.013C260.761 10.8483 261.14 10.766 261.574 10.766C261.938 10.766 262.256 10.8267 262.529 10.948C262.806 11.0693 263.038 11.2405 263.225 11.4615C263.415 11.6825 263.558 11.949 263.654 12.261C263.749 12.5687 263.797 12.9088 263.797 13.2815V17.5H262.406V13.2815C262.406 12.8352 262.302 12.4885 262.094 12.2415C261.89 11.9945 261.578 11.871 261.158 11.871C260.846 11.871 260.555 11.9425 260.287 12.0855C260.022 12.2285 259.773 12.4235 259.539 12.6705V17.5H258.142V7.88H259.539V11.6565ZM266.826 15.836C267.021 16.0873 267.233 16.265 267.463 16.369C267.697 16.4687 267.951 16.5185 268.224 16.5185C268.774 16.5185 269.203 16.3192 269.511 15.9205C269.818 15.5218 269.972 14.9043 269.972 14.068C269.972 13.3053 269.838 12.7485 269.569 12.3975C269.305 12.0465 268.926 11.871 268.432 11.871C268.089 11.871 267.79 11.949 267.535 12.105C267.283 12.2567 267.047 12.4755 266.826 12.7615V15.836ZM266.826 11.7475C267.099 11.4485 267.405 11.2102 267.743 11.0325C268.081 10.8548 268.466 10.766 268.9 10.766C269.285 10.766 269.632 10.8418 269.94 10.9935C270.252 11.1408 270.516 11.3553 270.733 11.637C270.949 11.9187 271.116 12.261 271.233 12.664C271.35 13.0627 271.409 13.5133 271.409 14.016C271.409 14.5533 271.341 15.043 271.207 15.485C271.077 15.9227 270.889 16.2997 270.642 16.616C270.395 16.928 270.096 17.1707 269.745 17.344C269.394 17.513 269.001 17.5975 268.568 17.5975C268.356 17.5975 268.163 17.5758 267.99 17.5325C267.816 17.4935 267.656 17.435 267.509 17.357C267.361 17.279 267.225 17.1858 267.099 17.0775C266.978 16.9692 266.861 16.8457 266.748 16.707L266.69 17.2205C266.668 17.3202 266.629 17.3917 266.573 17.435C266.516 17.4783 266.438 17.5 266.339 17.5H265.429V7.88H266.826V11.7475ZM275.633 10.766C276.123 10.766 276.565 10.8462 276.959 11.0065C277.358 11.1668 277.696 11.3943 277.973 11.689C278.255 11.9837 278.471 12.3412 278.623 12.7615C278.775 13.1818 278.851 13.6542 278.851 14.1785C278.851 14.7028 278.775 15.1752 278.623 15.5955C278.471 16.0158 278.255 16.3755 277.973 16.6745C277.696 16.9692 277.358 17.1967 276.959 17.357C276.565 17.5173 276.123 17.5975 275.633 17.5975C275.139 17.5975 274.693 17.5173 274.294 17.357C273.9 17.1967 273.562 16.9692 273.28 16.6745C272.998 16.3755 272.782 16.0158 272.63 15.5955C272.478 15.1752 272.403 14.7028 272.403 14.1785C272.403 13.6542 272.478 13.1818 272.63 12.7615C272.782 12.3412 272.998 11.9837 273.28 11.689C273.562 11.3943 273.9 11.1668 274.294 11.0065C274.693 10.8462 275.139 10.766 275.633 10.766ZM275.633 16.5055C276.231 16.5055 276.675 16.3062 276.966 15.9075C277.26 15.5045 277.408 14.9303 277.408 14.185C277.408 13.4397 277.26 12.8655 276.966 12.4625C276.675 12.0552 276.231 11.8515 275.633 11.8515C275.026 11.8515 274.576 12.0552 274.281 12.4625C273.986 12.8655 273.839 13.4397 273.839 14.185C273.839 14.9303 273.986 15.5045 274.281 15.9075C274.576 16.3062 275.026 16.5055 275.633 16.5055ZM283.736 14.601C283.237 14.6183 282.817 14.6595 282.475 14.7245C282.132 14.7852 281.855 14.8653 281.643 14.965C281.43 15.0603 281.277 15.1752 281.181 15.3095C281.09 15.4438 281.045 15.5912 281.045 15.7515C281.045 15.9075 281.069 16.0418 281.116 16.1545C281.168 16.2628 281.238 16.3538 281.324 16.4275C281.415 16.4968 281.519 16.5488 281.636 16.5835C281.758 16.6138 281.89 16.629 282.033 16.629C282.397 16.629 282.709 16.5618 282.969 16.4275C283.233 16.2888 283.489 16.0895 283.736 15.8295V14.601ZM280.031 11.793C280.78 11.0953 281.673 10.7465 282.709 10.7465C283.09 10.7465 283.428 10.8093 283.723 10.935C284.022 11.0563 284.271 11.2297 284.47 11.455C284.674 11.6803 284.828 11.949 284.932 12.261C285.04 12.5687 285.094 12.911 285.094 13.288V17.5H284.47C284.336 17.5 284.234 17.4805 284.165 17.4415C284.095 17.3982 284.037 17.3137 283.989 17.188L283.853 16.6485C283.684 16.8002 283.517 16.9367 283.352 17.058C283.188 17.175 283.016 17.2747 282.839 17.357C282.665 17.4393 282.477 17.5 282.273 17.539C282.074 17.5823 281.853 17.604 281.61 17.604C281.342 17.604 281.09 17.5672 280.856 17.4935C280.627 17.4198 280.427 17.3093 280.258 17.162C280.089 17.0103 279.955 16.824 279.855 16.603C279.76 16.382 279.712 16.122 279.712 15.823C279.712 15.5673 279.779 15.3182 279.914 15.0755C280.052 14.8328 280.278 14.6162 280.59 14.4255C280.906 14.2305 281.32 14.0702 281.831 13.9445C282.347 13.8188 282.982 13.7473 283.736 13.73V13.288C283.736 12.8113 283.634 12.456 283.43 12.222C283.227 11.988 282.928 11.871 282.533 11.871C282.265 11.871 282.039 11.9057 281.857 11.975C281.675 12.04 281.517 12.1115 281.383 12.1895C281.248 12.2675 281.129 12.3412 281.025 12.4105C280.921 12.4755 280.811 12.508 280.694 12.508C280.598 12.508 280.516 12.4842 280.447 12.4365C280.382 12.3845 280.328 12.3217 280.284 12.248L280.031 11.793ZM288.051 12.0985C288.259 11.6782 288.51 11.3488 288.805 11.1105C289.1 10.8678 289.453 10.7465 289.864 10.7465C290.007 10.7465 290.142 10.7638 290.267 10.7985C290.393 10.8288 290.506 10.8765 290.605 10.9415L290.508 11.9945C290.491 12.0682 290.462 12.1202 290.423 12.1505C290.389 12.1765 290.341 12.1895 290.28 12.1895C290.215 12.1895 290.122 12.1787 290.001 12.157C289.88 12.131 289.752 12.118 289.617 12.118C289.422 12.118 289.249 12.1462 289.097 12.2025C288.95 12.2588 288.816 12.3412 288.694 12.4495C288.577 12.5578 288.473 12.69 288.382 12.846C288.291 13.002 288.207 13.1797 288.129 13.379V17.5H286.731V10.87H287.544C287.691 10.87 287.793 10.8982 287.849 10.9545C287.906 11.0065 287.945 11.0997 287.966 11.234L288.051 12.0985ZM295.546 12.5015C295.351 12.2502 295.136 12.0747 294.902 11.975C294.668 11.8753 294.415 11.8255 294.142 11.8255C293.596 11.8255 293.169 12.027 292.861 12.43C292.554 12.8287 292.4 13.4202 292.4 14.2045C292.4 14.6118 292.435 14.9607 292.504 15.251C292.573 15.537 292.673 15.771 292.803 15.953C292.933 16.135 293.091 16.2672 293.277 16.3495C293.464 16.4318 293.674 16.473 293.908 16.473C294.263 16.473 294.569 16.3972 294.824 16.2455C295.084 16.0895 295.325 15.8707 295.546 15.589V12.5015ZM296.943 7.88V17.5H296.098C295.912 17.5 295.793 17.4112 295.741 17.2335L295.617 16.512C295.34 16.837 295.024 17.0992 294.668 17.2985C294.317 17.4978 293.908 17.5975 293.44 17.5975C293.067 17.5975 292.729 17.5238 292.426 17.3765C292.123 17.2248 291.863 17.006 291.646 16.72C291.429 16.434 291.26 16.0808 291.139 15.6605C291.022 15.2358 290.963 14.7505 290.963 14.2045C290.963 13.7105 291.028 13.2533 291.158 12.833C291.293 12.4127 291.483 12.0487 291.73 11.741C291.977 11.429 292.276 11.1863 292.627 11.013C292.983 10.8353 293.379 10.7465 293.817 10.7465C294.207 10.7465 294.538 10.8093 294.811 10.935C295.084 11.0563 295.329 11.2275 295.546 11.4485V7.88H296.943ZM298.438 16.694C298.438 16.5683 298.459 16.4513 298.503 16.343C298.55 16.2303 298.613 16.1328 298.691 16.0505C298.774 15.9682 298.869 15.9032 298.977 15.8555C299.09 15.8078 299.209 15.784 299.335 15.784C299.46 15.784 299.577 15.8078 299.686 15.8555C299.798 15.9032 299.896 15.9682 299.978 16.0505C300.061 16.1328 300.126 16.2303 300.173 16.343C300.221 16.4513 300.245 16.5683 300.245 16.694C300.245 16.824 300.221 16.9432 300.173 17.0515C300.126 17.1598 300.061 17.2552 299.978 17.3375C299.896 17.4198 299.798 17.4827 299.686 17.526C299.577 17.5737 299.46 17.5975 299.335 17.5975C299.209 17.5975 299.09 17.5737 298.977 17.526C298.869 17.4827 298.774 17.4198 298.691 17.3375C298.613 17.2552 298.55 17.1598 298.503 17.0515C298.459 16.9432 298.438 16.824 298.438 16.694Z" fill="white"/>
<defs>
<linearGradient id="paint0_linear_120_1053" x1="0" y1="13" x2="311" y2="13" gradientUnits="userSpaceOnUse">
<stop stop-color="#1968FA"/>
<stop offset="0.380208" stop-color="#A05CE6"/>
<stop offset="0.682292" stop-color="#D952CA"/>
<stop offset="1" stop-color="#FF51AC"/>
</linearGradient>
<clipPath id="clip0_120_1053">
<rect width="14" height="14" fill="white" transform="translate(8 6)"/>
</clipPath>
</defs>
</svg>
